<svg width="180" height="180" viewBox="0 0 180 180" fill="none" xmlns="http://www.w3.org/2000/svg">
  <defs>
    <!-- Shuleni Brand Gradient -->
    <linearGradient id="shuleniGradientApple" x1="0%" y1="0%" x2="100%" y2="100%">
      <stop offset="0%" style="stop-color:#3b82f6;stop-opacity:1" />
      <stop offset="50%" style="stop-color:#2563eb;stop-opacity:1" />
      <stop offset="100%" style="stop-color:#1d4ed8;stop-opacity:1" />
    </linearGradient>
    <!-- Inner highlight -->
    <linearGradient id="highlightGradientApple" x1="0%" y1="0%" x2="100%" y2="100%">
      <stop offset="0%" style="stop-color:#ffffff;stop-opacity:0.2" />
      <stop offset="100%" style="stop-color:#ffffff;stop-opacity:0.05" />
    </linearGradient>
  </defs>
  
  <!-- Rounded square background for iOS -->
  <rect width="180" height="180" rx="40" ry="40" fill="url(#shuleniGradientApple)"/>
  
  <!-- Inner highlight for depth -->
  <rect x="15" y="15" width="150" height="150" rx="30" ry="30" fill="url(#highlightGradientApple)" opacity="0.4"/>
  
  <!-- Large stylized "S" for Shuleni -->
  <path d="M 65 45 C 65 30 75 20 90 20 C 110 20 125 30 125 45 C 125 60 110 65 90 65 C 75 65 65 75 65 85 C 65 100 75 110 90 110 M 65 135 C 65 150 75 160 90 160 C 110 160 125 150 125 135 C 125 120 110 115 90 115 C 75 115 65 105 65 95 C 65 80 75 70 90 70" 
        stroke="white" 
        stroke-width="12" 
        stroke-linecap="round" 
        fill="none"/>
  
  <!-- Accent elements -->
  <circle cx="130" cy="60" r="6" fill="white" opacity="0.7"/>
  <circle cx="140" cy="75" r="3" fill="white" opacity="0.5"/>
</svg>