<svg width="32" height="32" viewBox="0 0 32 32" fill="none" xmlns="http://www.w3.org/2000/svg">
  <defs>
    <!-- Shuleni Brand Gradient -->
    <linearGradient id="shuleniGradient" x1="0%" y1="0%" x2="100%" y2="100%">
      <stop offset="0%" style="stop-color:#3b82f6;stop-opacity:1" />
      <stop offset="50%" style="stop-color:#2563eb;stop-opacity:1" />
      <stop offset="100%" style="stop-color:#1d4ed8;stop-opacity:1" />
    </linearGradient>
    <!-- Inner highlight -->
    <linearGradient id="highlightGradient" x1="0%" y1="0%" x2="100%" y2="100%">
      <stop offset="0%" style="stop-color:#ffffff;stop-opacity:0.3" />
      <stop offset="100%" style="stop-color:#ffffff;stop-opacity:0.1" />
    </linearGradient>
  </defs>
  
  <!-- Background circle with Shuleni brand gradient -->
  <circle cx="16" cy="16" r="14" fill="url(#shuleniGradient)" stroke="#1e40af" stroke-width="2"/>
  
  <!-- Inner highlight for depth -->
  <circle cx="16" cy="16" r="12" fill="url(#highlightGradient)" opacity="0.6"/>
  
  <!-- Stylized "S" for Shuleni -->
  <path d="M 12 10 C 12 8.5 13.5 7 16 7 C 18.5 7 20 8.5 20 10 C 20 11.5 18.5 12 16 12 C 13.5 12 12 13.5 12 15 C 12 16.5 13.5 18 16 18 M 12 22 C 12 23.5 13.5 25 16 25 C 18.5 25 20 23.5 20 22 C 20 20.5 18.5 20 16 20 C 13.5 20 12 18.5 12 17 C 12 15.5 13.5 15 16 15" 
        stroke="white" 
        stroke-width="2.5" 
        stroke-linecap="round" 
        fill="none"/>
  
  <!-- Small accent dot -->
  <circle cx="20.5" cy="11.5" r="1.5" fill="white" opacity="0.8"/>
</svg>