<svg width="16" height="16" viewBox="0 0 16 16" fill="none" xmlns="http://www.w3.org/2000/svg">
  <defs>
    <!-- Shuleni Brand Gradient -->
    <linearGradient id="shuleniGradient16" x1="0%" y1="0%" x2="100%" y2="100%">
      <stop offset="0%" style="stop-color:#3b82f6;stop-opacity:1" />
      <stop offset="50%" style="stop-color:#2563eb;stop-opacity:1" />
      <stop offset="100%" style="stop-color:#1d4ed8;stop-opacity:1" />
    </linearGradient>
  </defs>
  
  <!-- Background circle with Shuleni brand gradient -->
  <circle cx="8" cy="8" r="7" fill="url(#shuleniGradient16)" stroke="#1e40af" stroke-width="1"/>
  
  <!-- Simplified "S" for small size -->
  <path d="M 5 4 C 5 3.5 6 3 8 3 C 10 3 11 3.5 11 4 C 11 4.5 10 5 8 5 C 6 5 5 5.5 5 6 M 5 10 C 5 10.5 6 11 8 11 C 10 11 11 10.5 11 10 C 11 9.5 10 9 8 9 C 6 9 5 8.5 5 8" 
        stroke="white" 
        stroke-width="1.2" 
        stroke-linecap="round" 
        fill="none"/>
</svg>